<?xml version="1.0" encoding="UTF-8"?>
<svg id="Calque_1" data-name="Calque 1" xmlns="http://www.w3.org/2000/svg" viewBox="0 0 1199.57 257.77">
  <path d="M85.27,56.45c-8.32-7.14-17.6-12.26-28.25-15.25,1-1.2,1.82-2.25,2.7-3.25,11.92-13.52,26.19-23.72,42.97-30.36,7.32-2.9,14.88-4.95,22.67-6.13,4.5-.68,9.02-.97,13.55-1.31,4.64-.35,9.23,0,13.82.28,7.51.47,14.9,1.85,22.13,3.98,13.8,4.06,26.44,10.4,37.81,19.22,8.26,6.41,15.48,13.85,21.52,22.4,6.45,9.13,11.48,18.98,14.91,29.64,1.91,5.93,3.19,12,4.05,18.18,1.11,7.91,1.19,15.86.67,23.78-.85,12.73-4.02,24.93-9.24,36.6-5.06,11.31-11.72,21.55-20.2,30.58-11.27,12-24.56,21.08-39.91,27.1-2.82,1.11-5.71,2.06-8.9,3.2,0-1.36-.09-2.49.01-3.59.31-3.23.49-6.5,1.1-9.68.85-4.44,1.98-8.83,3.1-13.22.59-2.28,1.48-4.49,2.12-6.76.25-.87.72-1.38,1.45-1.82,5.93-3.55,11.19-7.93,15.82-13.05,7.49-8.29,13.21-17.66,17.12-28.13,2.47-6.62,4.04-13.45,4.92-20.45.64-5.07.73-10.18.33-15.26-1.28-16.65-7.37-31.37-18.13-44.16-9.5-11.29-21.37-19.1-35.26-23.86-5.19-1.78-10.55-2.99-16.05-3.41-3.04-.23-6.1-.7-9.13-.59-4.32.15-8.67.5-12.94,1.17-7.94,1.24-15.45,3.9-22.59,7.62-7.46,3.88-14.22,8.71-20.21,14.61-.62.61-1.24,1.23-1.95,1.94Z" style="fill: #13aa91; stroke-width: 0px;"/>
  <path d="M37.71,73.18c5.7-.49,20.08,4.38,29.42,13.9-6.17,25.11-2.6,48.58,13.1,69.48,15.73,20.95,37.29,30.89,63.54,31.71-2.22,9.57-4,19.23-4.8,29.22-2.28-.14-4.43-.29-6.58-.39-8.42-.37-16.68-1.69-24.77-4.11-14.1-4.22-26.71-11.17-37.96-20.61-14.72-12.36-25.29-27.6-31.91-45.64-2.67-7.28-4.56-14.74-5.46-22.41-.6-5.11-.9-10.29-.83-15.44.1-8.26.79-16.5,2.74-24.57.92-3.81,2.07-7.54,3.51-11.14Z" style="fill: #13aa91; stroke-width: 0px;"/>
  <path d="M167.25,257.77h-13.44c-1.33-3.56-2.18-7.18-2.79-10.85-1.38-8.41-1.57-16.89-1.26-25.38.44-12.05,2.54-23.84,5.5-35.49,2.2-8.67,4.79-17.22,8.03-25.55,1.99-5.11,4.2-10.13,6.29-15.19.28-.69.53-1.39.75-2.1.62-2.03,0-3.15-2-3.63-1.25-.3-2.52-.54-3.78-.8-.27-.05-.54-.06-.81-.12-4.33-1.1-6.23-4.02-5.55-8.48.13-.87.28-1.74.35-2.62.19-2.37-1.31-3.58-3.57-2.88-.57.18-1.1.51-1.64.77-.42.2-.83.48-1.28.59-2.45.64-3.74-.05-4.52-2.47-.31-.96-.46-1.98-.63-2.98-.16-.94-.14-1.91-.38-2.82-1.05-3.98-.73-3.78-4.69-4.36-2.35-.35-4.7-.61-6.75-1.99-1.76-1.18-2.75-2.73-2.89-4.87-.24-3.72-.51-7.44-.86-11.15-.1-1.06-.42-2.12-.76-3.13-.39-1.15-1.34-1.66-2.52-1.72-1.71-.1-3.37.18-5.01.67-4.23,1.26-8.55,2.17-12.95,2.51-6.63.51-12.98-.75-18.94-3.73-6.65-3.33-12.73-7.51-18.42-12.3-5.32-4.47-11.19-8.15-17.45-11.17-4.06-1.96-8.44-2.91-12.85-3.7-5.45-.97-10.96-1.18-16.46-.76-8.68.66-17.22,2.1-25.28,5.63-.18.08-.39.12-.68.22v-15.13c3.36-1.92,7.04-3.05,10.81-3.87,7.26-1.58,14.62-2.34,22.05-1.97,13.54.66,26.08,4.61,37.71,11.58,5.67,3.4,10.87,7.42,16.05,11.5,4.43,3.49,9.18,6.51,14.6,8.32,4.15,1.39,8.37,1.49,12.67.91,5.71-.78,11.43-1.51,17.15-2.2,1.14-.14,2.31-.07,3.47-.04,3.77.09,6.26,2.06,7.11,5.76.39,1.71.57,3.47.81,5.22.39,2.96.81,5.91,1.11,8.87.15,1.43.96,2.18,2.16,2.67,1.63.67,3.28,1.28,4.89,2,1.11.5,2.18,1.1,3.22,1.72,1.46.87,2.2,2.2,2.1,3.91-.11,1.89-.29,3.79-.43,5.68-.03.4-.06.8-.11,1.55.68-.49,1.1-.87,1.59-1.13,1.19-.62,2.35-1.39,3.62-1.73,2.2-.6,4.14.43,4.85,2.59.55,1.65.76,3.41,1.09,5.13.08.39,0,.82.02,1.22.2,3.32,1.38,5,4.57,5.91,2.47.7,5.03,1.08,7.53,1.66,1.12.26,2.24.56,3.28,1.03,4.6,2.05,5.54,5.07,4.9,9.38-.23,1.52-.72,3.05-1.37,4.44-3.69,8.01-6.62,16.31-9.48,24.63-3.02,8.77-5.76,17.63-7.99,26.63-1.79,7.25-2.95,14.6-3.57,22.05-.52,6.3-.9,12.6-.59,18.91.37,7.52.92,15.02,3.48,22.2.04.11-.03.25-.06.45Z" style="fill: #282d6a; stroke-width: 0px;"/>
  <path d="M764.09,82.11v-9.59h17.35v73.08c-3.77,0-7.5.18-11.2-.05-3.35-.22-5.93-3.26-6.19-6.78-.06-.78,0-1.57,0-2.68-1.05,1.35-1.83,2.45-2.71,3.46-3.86,4.42-8.88,6.9-14.5,8.05-9.58,1.96-18.74.63-27.25-4.33-6.94-4.05-11.69-10.02-14.76-17.36-1.71-4.08-2.63-8.35-3.03-12.77-.74-8.17.51-15.95,4.27-23.23,5.19-10.05,13.41-16.34,24.4-18.95,5.49-1.3,11.02-1.32,16.54-.07,6.54,1.49,11.82,4.93,15.89,10.26.28.37.56.73.84,1.09.12-.04.24-.08.35-.12ZM741.64,131.86c15.02.27,22.41-12.51,22.43-23.08.02-10.83-8.06-22.34-22.5-22.34-13.26,0-22.15,10.17-22.27,22.37-.13,13.53,9.64,23.27,22.34,23.04Z" style="fill: #13aa91; stroke-width: 0px;"/>
  <path d="M812.67,126.49v19.05h-18.3c-.03-.62-.09-1.21-.09-1.8,0-21.02.06-42.03-.05-63.05-.02-4.52,3.79-8.27,8-8.24,11.43.09,22.87-.04,34.3.2,4.79.1,9.57.87,13.97,3.08,7.28,3.66,11.67,9.65,13.48,17.41,1.79,7.7.23,15-4.27,21.49-4.26,6.15-10.32,9.65-17.65,11.01-3.95.73-7.95.86-11.96.85-5.71-.01-11.43,0-17.42,0ZM812.7,110.73c.37.07.57.15.76.15,7.06-.1,14.13-.16,21.19-.33,3.19-.08,6.1-1.26,8.73-3,5.73-3.78,5.97-13.23-.49-16.68-3.45-1.84-7.04-2.76-10.89-2.78-5.92-.03-11.84-.01-17.75,0-.51,0-1.03.09-1.55.14v22.5Z" style="fill: #13aa91; stroke-width: 0px;"/>
  <path d="M695.19,99.86h-18.04c-1.28-3.02-2.97-5.75-5.41-8.01-3.04-2.82-6.65-4.32-10.68-5.02-3.54-.61-7.05-.51-10.46.56-7.71,2.42-12.4,7.76-14.34,15.49-1.35,5.39-1.06,10.8,1.16,15.93,2.98,6.89,8.19,11.19,15.65,12.53,6.2,1.11,12.02.15,17.23-3.56,3.06-2.18,5.23-5.1,6.81-8.59h17.88c-2.62,13.72-16.57,29.7-38.62,29.18-22.09-.52-36.73-16.29-38.47-35.32-2.06-22.6,12.88-39.48,32.06-42.46,22.12-3.43,40.79,9.61,45.23,29.27Z" style="fill: #13aa91; stroke-width: 0px;"/>
  <path d="M379,145.68c-4.56,0-8.78-.03-12.99.02-1.05.01-1.4-.59-1.79-1.34-1.6-3.06-3.23-6.11-4.84-9.17-2.6-4.91-5.19-9.82-7.82-14.79h-20.41v25.18h-12.23v-73.16h2.12c9.05,0,18.1-.01,27.16,0,5.11,0,10.18.32,15.12,1.76,8.18,2.38,13.81,7.87,14.83,18.05.37,3.68.26,7.3-.4,10.93-1.39,7.68-5.95,12.57-13.24,15.07-.51.17-1.01.36-1.63.58,5.35,8.91,10.64,17.74,16.11,26.86ZM331.11,83.59c0,8.48,0,16.99,0,25.65.86,0,1.53,0,2.19,0,4.01,0,8.02.04,12.03-.01,3.12-.04,6.25-.09,9.35-.38,1.93-.18,3.89-.62,5.73-1.25,2.86-.99,4.73-3.03,5.53-6.02.72-2.67.78-5.34.36-8.05-.63-4.02-2.77-6.82-6.57-8.34-2.62-1.04-5.38-1.51-8.14-1.56-6.72-.12-13.45-.04-20.46-.04Z" style="fill: #282d6a; stroke-width: 0px;"/>
  <path d="M539.29,120.32v25.27h-12.39v-73.07c.64-.03,1.17-.08,1.71-.08,9.39,0,18.78-.03,28.17,0,5.38.02,10.71.4,15.86,2.14,7.68,2.59,12.1,7.9,13.39,15.87.71,4.4.71,8.81-.19,13.16-1.55,7.49-6.1,12.37-13.41,14.67-4.77,1.5-9.69,1.99-14.66,2.02-6.05.04-12.1,0-18.47,0ZM539.42,83.53c-.37,6.91-.21,24.07.25,25.71,6.43,0,12.88.11,19.32-.05,2.75-.07,5.54-.5,8.23-1.14,4.32-1.03,6.75-3.92,7.24-8.27.18-1.61.16-3.25.08-4.87-.25-5.24-2.81-8.65-7.89-10.07-2.45-.69-5.05-1.12-7.6-1.19-6.18-.18-12.36-.09-18.55-.11-.32,0-.65,0-1.1,0Z" style="fill: #282d6a; stroke-width: 0px;"/>
  <path d="M406.35,128.12c-2.58,5.85-5.12,11.61-7.69,17.45h-12.99c11.07-24.44,22.08-48.72,33.15-73.15,2.47,0,4.9-.01,7.34,0,1.35.01,3.02-.39,3.97.25,1.03.69,1.44,2.35,2.03,3.63,10.16,22.3,20.3,44.61,30.44,66.92.33.73.63,1.47,1.01,2.36h-13.14c-2.54-5.76-5.1-11.57-7.7-17.46h-36.41ZM424.55,86.75c-4.6,10.47-9.02,20.51-13.49,30.65h27c-4.5-10.22-8.94-20.29-13.51-30.65Z" style="fill: #282d6a; stroke-width: 0px;"/>
  <path d="M480.72,83.52h-24.24v-10.96h60.72v10.98h-24.19v62.03h-12.28v-62.04Z" style="fill: #282d6a; stroke-width: 0px;"/>
  <path d="M354.09,208.75c1.19.65,2.23,1.14,3.19,1.75,3.31,2.12,5.16,5.15,5.3,9.09.06,1.75.08,3.56-.33,5.24-.98,4.09-3.87,6.59-7.65,8.09-2.72,1.08-5.58,1.68-8.53,1.69-8.91.02-17.82.01-26.73,0-.2,0-.4-.05-.72-.1v-49.29c.3-.05.55-.13.81-.13,8.77.03,17.55,0,26.32.12,3.22.05,6.21,1.11,9.01,2.76,7.32,4.33,7.08,15.81.27,20.13-.28.18-.56.37-.95.63ZM327.95,227.22c6,0,11.9.08,17.79-.06,1.43-.03,2.92-.59,4.26-1.19,2.25-1.01,3.24-2.91,3.29-5.39.05-2.5-.69-4.53-2.96-5.82-1.62-.92-3.37-1.42-5.23-1.44-4.96-.05-9.92-.06-14.88-.08-.73,0-1.46,0-2.28,0v13.97ZM327.89,205.92c4.94,0,9.68.09,14.42-.05,1.58-.05,3.21-.5,4.7-1.08,2.5-.98,3.77-2.91,3.76-5.68,0-2.77-1.28-4.63-3.75-5.71-1.95-.85-4.03-1.1-6.13-1.12-3.8-.04-7.6-.02-11.4,0-.52,0-1.04.07-1.59.12v13.54Z" style="fill: #13aa91; stroke-width: 0px;"/>
  <path d="M646.74,201.35v33.21h-9.17v-49.39c1.3-.03,2.65.1,3.95-.11,2.83-.46,4.56.79,6.26,2.96,5.74,7.32,11.7,14.46,17.57,21.67,2.06,2.53,4.1,5.06,6.13,7.61.25.31.42.69.63,1.04.14-.09.29-.19.43-.28v-32.85h8.94v49.22c-1.28.45-2.72.02-4.1.22-2.37.35-3.95-.5-5.48-2.43-7.42-9.36-15.01-18.58-22.55-27.85-.76-.93-1.57-1.82-2.61-3.03Z" style="fill: #13aa91; stroke-width: 0px;"/>
  <path d="M1106.72,185.1c2.32,0,4.55.03,6.78-.02.93-.02,1.3.63,1.76,1.19,2.64,3.19,5.26,6.39,7.88,9.6,4.59,5.63,9.16,11.27,13.75,16.9,1.45,1.78,2.91,3.55,4.68,5.71v-33.35c3.07-.09,5.96-.03,8.84-.04.46,1.52.65,43.87.22,49.53-2.32,0-4.68.06-7.02-.05-.49-.02-1.05-.56-1.42-1-2.18-2.6-4.32-5.24-6.46-7.87-5.74-7.05-11.48-14.11-17.22-21.17-.8-.98-1.63-1.94-2.71-3.22v33.26c-3.05.08-5.99.02-9.07.04v-49.54Z" style="fill: #13aa91; stroke-width: 0px;"/>
  <path d="M876.37,234.64v-49.28c.17-.08.34-.22.51-.22,8.5.02,17.03-.37,25.49.2,10.07.69,19.19,6.87,21.78,17.22,1.96,7.85,1.39,15.5-3.72,22.25-3.53,4.67-8.28,7.56-13.93,8.9-2.22.53-4.54.86-6.83.89-7.34.11-14.69.04-22.04.04-.39,0-.78,0-1.27,0ZM885.73,226.84c1.86,0,3.61.04,5.37,0,3.59-.1,7.22.03,10.76-.46,5.73-.79,10.02-3.84,12.45-9.24,1.37-3.05,1.62-6.23,1.29-9.52-.54-5.28-2.94-9.38-7.53-12.09-2.78-1.64-5.82-2.54-9.08-2.56-3.88-.02-7.75-.03-11.63-.04-.52,0-1.04.06-1.63.09v33.83Z" style="fill: #13aa91; stroke-width: 0px;"/>
  <path d="M801.65,185.21c8.71,0,17.23-.39,25.69.1,10.08.58,18.82,6.67,21.66,16.01,2.5,8.22,1.97,16.22-3.31,23.41-3.47,4.73-8.28,7.55-13.89,8.96-2.21.55-4.54.87-6.82.9-7.41.11-14.82.04-22.23.04-.33,0-.66-.03-1.1-.05v-49.37ZM810.93,192.88c-.09.89-.24,1.61-.24,2.33-.01,9.79-.01,19.59,0,29.38,0,.72.15,1.43.23,2.25,3.83,0,7.5.04,11.17-.02,1.76-.03,3.53-.13,5.26-.43,3.13-.53,5.91-1.84,8.34-3.94,5.52-4.79,6.4-13.03,4.18-19.09-2.06-5.62-6.39-8.82-12.15-9.96-5.51-1.09-11.1-.25-16.79-.52Z" style="fill: #13aa91; stroke-width: 0px;"/>
  <path d="M743.23,209.8c.14,6.84-2.06,12.61-6.53,17.43-3.29,3.55-7.4,5.97-12.09,7.16-8.15,2.07-16.04,1.34-23.29-3.17-6.54-4.06-10.29-10-11.32-17.68-.87-6.43.24-12.44,3.83-17.84,3.99-6,9.74-9.55,16.77-10.86,5.47-1.02,10.92-.78,16.22,1.19,10.26,3.82,16.79,13.23,16.41,23.77ZM733.83,210.01c.46-9.24-6.9-17.55-17.25-17.56-8.89-.01-17.37,6.49-17.48,17.27-.09,9.68,7,17.5,17.37,17.53,10.81.04,17.67-8.49,17.36-17.24Z" style="fill: #13aa91; stroke-width: 0px;"/>
  <path d="M367.31,209.95c-.1-7.24,2.33-13.45,7.59-18.42,4.64-4.39,10.26-6.7,16.63-7.13,5.07-.34,10.02.17,14.68,2.41,8.17,3.93,13.09,10.28,14.37,19.33.93,6.56-.35,12.65-4.05,18.18-3.44,5.13-8.28,8.34-14.16,9.95-8.14,2.23-16.03,1.55-23.3-2.93-7.91-4.87-11.68-12.16-11.76-21.39ZM376.73,209.8c-.28,9.11,6.54,17.36,17.17,17.46,10.02.09,17.54-7.26,17.58-17.33.04-10.12-7.62-17.44-17.45-17.47-9.55-.03-17.58,7.55-17.3,17.35Z" style="fill: #13aa91; stroke-width: 0px;"/>
  <path d="M760.69,234.55h-9.24v-49.22c.16-.07.33-.21.51-.21,7.76,0,15.51-.06,23.26.09,3.41.07,6.64,1.12,9.66,2.8,6.25,3.47,8.79,10.15,8.02,16.95-.57,5.06-2.92,9.1-7.27,11.88-.91.58-1.89,1.04-3.06,1.69,3.73,5.33,7.4,10.58,11.27,16.11-2.16,0-4.09.02-6.01,0-1.35-.02-2.92.32-4-.24-1.08-.57-1.68-2.05-2.46-3.16-2.29-3.28-4.57-6.57-6.85-9.86-.38-.55-.7-1.13-1.55-1.12-4,.03-8.01.01-12.27.01,0,2.5,0,4.85,0,7.2s0,4.6,0,7.09ZM760.76,212.55c1.92,0,3.67.04,5.43,0,3.12-.1,6.25-.07,9.34-.43,3.76-.44,7.05-2.86,7.9-7.35.83-4.38-.86-9.67-6.46-11.07-1.3-.33-2.64-.66-3.98-.7-3.6-.11-7.21-.07-10.81-.07-.45,0-.9.07-1.41.11v19.52Z" style="fill: #13aa91; stroke-width: 0px;"/>
  <path d="M610.01,185.19v7.64h-26.79v12.72h23.79v7.73c-1.88.02-3.82.04-5.76.05-2.04,0-4.08,0-6.12,0h-11.93v13.53c2.23.01,4.5.03,6.78.04,2.38,0,4.76,0,7.14,0h13.96v7.65h-37.23v-49.35h36.15Z" style="fill: #13aa91; stroke-width: 0px;"/>
  <path d="M1039.84,185.19h36.08v7.62h-26.72v12.77c2.53.01,5.15.03,7.77.03,2.65,0,5.31,0,7.96,0s5.29,0,8.05,0v7.65c-1.86.02-3.8.04-5.74.05-2.04,0-4.08,0-6.12,0h-11.94v13.56h27.88v7.66h-37.22v-49.34Z" style="fill: #13aa91; stroke-width: 0px;"/>
  <path d="M1162.36,185.19h36.09v7.69h-26.72v12.7h23.77v7.69c-1.86.02-3.81.04-5.75.05-2.04,0-4.08,0-6.13,0h-5.92c-1.96,0-3.92,0-5.98,0v13.51h27.84v7.7h-37.21v-49.34Z" style="fill: #13aa91; stroke-width: 0px;"/>
  <path d="M970.27,226.87v7.64h-37.01v-49.32h36.08v7.64h-26.73v12.73h23.81v7.7c-2.59.13-5.22.04-7.84.06-2.65.01-5.31,0-7.96,0h-8.03v13.55h27.69Z" style="fill: #13aa91; stroke-width: 0px;"/>
  <path d="M428.36,185.18h9.34c0,.8,0,1.53,0,2.26.02,8.97,0,17.94.07,26.91.02,2.3.52,4.54,1.48,6.68,1.48,3.32,4.13,5.09,7.56,5.84,2.34.51,4.68.52,7.05,0,4.54-.98,7.25-3.79,8.29-8.18.47-1.96.71-4.01.73-6.02.08-8.36.03-16.72.03-25.08,0-.74,0-1.47,0-2.35h8.97c.04.43.12.95.12,1.47,0,9.18.07,18.35-.02,27.53-.04,4.44-.92,8.74-3.42,12.55-3,4.57-7.35,7.12-12.62,8.14-4.17.81-8.37.72-12.51-.29-7.74-1.88-12.48-6.77-14.24-14.48-.49-2.16-.76-4.42-.78-6.63-.09-9.04-.04-18.08-.04-27.12v-1.24Z" style="fill: #13aa91; stroke-width: 0px;"/>
  <path d="M992.6,229.56c1.15-2.56,2.17-4.84,3.2-7.14,1.95,1.01,3.8,2.1,5.76,2.97,4.9,2.16,10.01,2.86,15.3,1.88,1.76-.33,3.39-.91,4.72-2.18,2.38-2.29,2.4-6.13-.89-8.12-2.49-1.5-5.28-2.02-8.01-2.79-3.38-.95-6.79-1.82-10.12-2.93-2.12-.71-4.04-1.9-5.62-3.56-1.9-2-2.9-4.32-3.09-7.1-.26-3.83.56-7.28,3.05-10.24,1.93-2.3,4.42-3.86,7.26-4.67,8.41-2.4,16.62-1.8,24.55,2.02.54.26,1.03.62,1.68,1.01-.96,2.36-1.89,4.66-2.87,7.09-1.72-.74-3.34-1.53-5.02-2.15-4.42-1.62-8.97-2.09-13.59-1.07-1.1.24-2.2.72-3.17,1.3-3.03,1.82-4.4,6.74.08,9.3,1.22.7,2.58,1.22,3.93,1.6,3.71,1.04,7.47,1.9,11.18,2.93,2.42.68,4.73,1.63,6.79,3.12,2.88,2.08,4.38,4.88,4.64,8.42.58,8.02-4.28,13.37-11.85,15.23-8.22,2.02-16.3,1.12-23.99-2.54-1.33-.63-2.54-1.53-3.92-2.38Z" style="fill: #13aa91; stroke-width: 0px;"/>
  <path d="M520.03,221.43c1.96,1.85,3.92,3.71,5.91,5.6-2.54,3.06-5.62,5.27-9.24,6.57-7.59,2.73-15.19,2.62-22.57-.69-7.95-3.56-12.83-9.86-14.17-18.37-1.42-9.05.71-17.29,7.85-23.64,3.84-3.41,8.33-5.46,13.45-6.19,5.62-.8,11.09-.45,16.35,1.77,3.22,1.35,6.03,3.31,8.35,6.17-2.03,1.89-4,3.74-5.97,5.58-8.75-8.87-21.14-6.2-26.49-.45-5.8,6.24-6.15,17.09-.31,23.83,5.02,5.79,17.64,9.19,26.83-.18Z" style="fill: #13aa91; stroke-width: 0px;"/>
  <path d="M542.29,226.84h25.9v7.52c-1.45.36-32.84.43-35.2.06v-49.19h9.22c.17,6.81.05,13.71.07,20.6.02,6.92,0,13.84,0,21Z" style="fill: #13aa91; stroke-width: 0px;"/>
  <path d="M1094.75,234.55h-8.93v-49.42c2.95-.05,5.89-.03,8.93-.02v49.44Z" style="fill: #13aa91; stroke-width: 0px;"/>
  <path d="M741.64,131.86c-12.7.23-22.47-9.51-22.34-23.04.12-12.2,9.01-22.37,22.27-22.37,14.43,0,22.52,11.51,22.5,22.34-.02,10.56-7.41,23.35-22.43,23.08Z" style="fill: #fefefe; stroke-width: 0px;"/>
  <path d="M812.7,110.73v-22.5c.52-.05,1.03-.14,1.55-.14,5.92-.01,11.84-.03,17.75,0,3.85.02,7.45.93,10.89,2.78,6.45,3.45,6.21,12.9.49,16.68-2.64,1.74-5.54,2.92-8.73,3-7.06.17-14.13.23-21.19.33-.19,0-.38-.07-.76-.15Z" style="fill: #fefefe; stroke-width: 0px;"/>
  <path d="M331.11,83.59c7.01,0,13.74-.08,20.46.04,2.77.05,5.52.51,8.14,1.56,3.81,1.51,5.94,4.32,6.57,8.34.43,2.71.36,5.38-.36,8.05-.8,3-2.67,5.03-5.53,6.02-1.84.64-3.79,1.08-5.73,1.25-3.1.28-6.23.33-9.35.38-4.01.06-8.02.01-12.03.01-.66,0-1.33,0-2.19,0,0-8.66,0-17.17,0-25.65Z" style="fill: #fefefe; stroke-width: 0px;"/>
  <path d="M539.42,83.53c.45,0,.78,0,1.1,0,6.18.02,12.37-.07,18.55.11,2.55.08,5.14.5,7.6,1.19,5.07,1.42,7.64,4.83,7.89,10.07.08,1.62.1,3.26-.08,4.87-.49,4.35-2.92,7.24-7.24,8.27-2.69.64-5.48,1.07-8.23,1.14-6.45.16-12.9.05-19.32.05-.46-1.64-.62-18.79-.25-25.71Z" style="fill: #fefefe; stroke-width: 0px;"/>
  <path d="M424.55,86.75c4.57,10.37,9.01,20.43,13.51,30.65h-27c4.46-10.15,8.88-20.19,13.49-30.65Z" style="fill: #fefefe; stroke-width: 0px;"/>
  <path d="M327.95,227.22v-13.97c.82,0,1.55,0,2.28,0,4.96.02,9.92.03,14.88.08,1.86.02,3.61.52,5.23,1.44,2.26,1.28,3.01,3.32,2.96,5.82-.05,2.48-1.04,4.37-3.29,5.39-1.33.6-2.83,1.16-4.26,1.19-5.89.13-11.79.06-17.79.06Z" style="fill: #fefefe; stroke-width: 0px;"/>
  <path d="M327.89,205.92v-13.54c.55-.04,1.07-.12,1.59-.12,3.8,0,7.6-.04,11.4,0,2.1.02,4.18.27,6.13,1.12,2.48,1.08,3.75,2.94,3.75,5.71,0,2.78-1.26,4.7-3.76,5.68-1.49.58-3.12,1.04-4.7,1.08-4.74.14-9.48.05-14.42.05Z" style="fill: #fdfefe; stroke-width: 0px;"/>
  <path d="M885.73,226.84v-33.83c.59-.03,1.11-.09,1.63-.09,3.88,0,7.75.02,11.63.04,3.26.01,6.29.91,9.08,2.56,4.59,2.71,6.99,6.8,7.53,12.09.34,3.3.09,6.47-1.29,9.52-2.43,5.4-6.72,8.45-12.45,9.24-3.54.49-7.17.35-10.76.46-1.75.05-3.51,0-5.37,0Z" style="fill: #fefefe; stroke-width: 0px;"/>
  <path d="M810.93,192.88c5.69.28,11.29-.56,16.79.52,5.76,1.14,10.09,4.33,12.15,9.96,2.22,6.06,1.34,14.3-4.18,19.09-2.43,2.1-5.21,3.42-8.34,3.94-1.73.29-3.51.4-5.26.43-3.67.06-7.34.02-11.17.02-.09-.81-.23-1.53-.23-2.25-.01-9.79-.01-19.59,0-29.38,0-.72.14-1.44.24-2.33Z" style="fill: #fefefe; stroke-width: 0px;"/>
  <path d="M733.83,210.01c.32,8.75-6.55,17.28-17.36,17.24-10.37-.04-17.47-7.85-17.37-17.53.1-10.78,8.59-17.28,17.48-17.27,10.35.01,17.71,8.32,17.25,17.56Z" style="fill: #fefefe; stroke-width: 0px;"/>
  <path d="M376.73,209.8c-.29-9.8,7.75-17.38,17.3-17.35,9.83.03,17.49,7.35,17.45,17.47-.04,10.08-7.56,17.42-17.58,17.33-10.63-.09-17.45-8.35-17.17-17.46Z" style="fill: #fefefe; stroke-width: 0px;"/>
  <path d="M760.76,212.55v-19.52c.51-.04.96-.11,1.41-.11,3.6,0,7.21-.04,10.81.07,1.33.04,2.67.38,3.98.7,5.6,1.4,7.29,6.69,6.46,11.07-.85,4.49-4.14,6.9-7.9,7.35-3.09.36-6.22.34-9.34.43-1.75.05-3.51,0-5.43,0Z" style="fill: #fefefe; stroke-width: 0px;"/>
</svg>